# xmcd CD database file
#
# Track frame offsets:
#	150
#	18755
#	35737
#	53415
#	73212
#	89300
#	104890
#	123945
#	139947
#	156280
#	177025
#	195382
#
# Disc length: 2844 seconds
#
# Revision: 6
# Processed by: cddbd v1.5.2PL0 Copyright (c) Steve Scherf et al.
# Submitted via: CDex 1.51
#
DISCID=a10b1a0c
DTITLE=Sammy Kershaw - Maybe Not Tonight
DYEAR=1999
DGENRE=Country
TTITLE0=Maybe Not Tonight  [with Lorrie Morgan]
TTITLE1=Me And Maxine
TTITLE2=Without Strings
TTITLE3=More Than I Can Say
TTITLE4=Love Me, Loving You
TTITLE5=I've Never Gone This Far Before
TTITLE6=When You Love Someone
TTITLE7=Ouch
TTITLE8=How Can I Say No
TTITLE9=Look What I Did To Us
TTITLE10=Louisiana Hot Sauce
TTITLE11=How Much Does The World Weigh
EXTD=YEAR: 1999
EXTT0=
EXTT1=
EXTT2=
EXTT3=
EXTT4=
EXTT5=
EXTT6=
EXTT7=
EXTT8=
EXTT9=
EXTT10=
EXTT11=
PLAYORDER=
